<mxfile host="app.diagrams.net" modified="2021-05-21T00:51:31.499Z" agent="5.0 (Macintosh; Intel Mac OS X 10_15_6) AppleWebKit/605.1.15 (KHTML, like Gecko) Version/14.0.3 Safari/605.1.15" etag="Jk2DW0_-aJqxoExSYtUU" version="14.4.8" type="github">
  <diagram id="EeojgAbSNtd3ESP0izFr" name="Page-1">
    <mxGraphModel dx="3838" dy="2237" grid="1" gridSize="10" guides="1" tooltips="1" connect="1" arrows="1" fold="1" page="1" pageScale="1" pageWidth="850" pageHeight="1100" math="0" shadow="0">
      <root>
        <mxCell id="0" />
        <mxCell id="1" parent="0" />
        <mxCell id="H7V61cuxpoeFHrsZeGpr-1" value="" style="whiteSpace=wrap;html=1;aspect=fixed;" vertex="1" parent="1">
          <mxGeometry x="260" y="-1070" width="230" height="230" as="geometry" />
        </mxCell>
        <mxCell id="H7V61cuxpoeFHrsZeGpr-2" value="&lt;font style=&quot;font-size: 16px&quot;&gt;Antibi Hybrid&lt;br&gt;Tracker&lt;br&gt;&lt;/font&gt;" style="text;html=1;strokeColor=none;fillColor=none;align=center;verticalAlign=middle;whiteSpace=wrap;rounded=0;" vertex="1" parent="1">
          <mxGeometry x="280" y="-1060" width="190" height="210" as="geometry" />
        </mxCell>
        <mxCell id="H7V61cuxpoeFHrsZeGpr-3" value="" style="whiteSpace=wrap;html=1;aspect=fixed;" vertex="1" parent="1">
          <mxGeometry x="260" y="-820" width="230" height="230" as="geometry" />
        </mxCell>
        <mxCell id="H7V61cuxpoeFHrsZeGpr-4" value="&lt;font style=&quot;font-size: 16px&quot;&gt;Opening Page&lt;/font&gt;" style="text;html=1;strokeColor=none;fillColor=none;align=center;verticalAlign=middle;whiteSpace=wrap;rounded=0;" vertex="1" parent="1">
          <mxGeometry x="310" y="-840" width="130" height="80" as="geometry" />
        </mxCell>
        <mxCell id="H7V61cuxpoeFHrsZeGpr-5" value="&lt;font style=&quot;font-size: 16px&quot;&gt;First Page will be&lt;br&gt;User Authentication&lt;br&gt;Username and&lt;br&gt;Password along with&lt;br&gt;third party login&lt;br&gt;such as gmail.&lt;br&gt;&lt;/font&gt;" style="text;html=1;strokeColor=none;fillColor=none;align=center;verticalAlign=middle;whiteSpace=wrap;rounded=0;" vertex="1" parent="1">
          <mxGeometry x="280" y="-770" width="190" height="110" as="geometry" />
        </mxCell>
        <mxCell id="H7V61cuxpoeFHrsZeGpr-7" value="" style="endArrow=classic;startArrow=classic;html=1;entryX=0.422;entryY=0.995;entryDx=0;entryDy=0;entryPerimeter=0;" edge="1" parent="1" target="H7V61cuxpoeFHrsZeGpr-2">
          <mxGeometry width="50" height="50" relative="1" as="geometry">
            <mxPoint x="360" y="-810" as="sourcePoint" />
            <mxPoint x="410" y="-860" as="targetPoint" />
          </mxGeometry>
        </mxCell>
        <mxCell id="H7V61cuxpoeFHrsZeGpr-8" value="" style="whiteSpace=wrap;html=1;aspect=fixed;" vertex="1" parent="1">
          <mxGeometry x="260" y="-510" width="230" height="230" as="geometry" />
        </mxCell>
        <mxCell id="H7V61cuxpoeFHrsZeGpr-9" value="&lt;font size=&quot;3&quot;&gt;Once logged in, there will be&lt;br&gt;a scrolling feed where&amp;nbsp;&lt;br&gt;employees of Antibi can&lt;br&gt;give status updates about&lt;br&gt;the Hybrids and various other&lt;br&gt;pieces of information.&lt;br&gt;&lt;/font&gt;" style="text;html=1;strokeColor=none;fillColor=none;align=center;verticalAlign=middle;whiteSpace=wrap;rounded=0;" vertex="1" parent="1">
          <mxGeometry x="260" y="-510" width="230" height="180" as="geometry" />
        </mxCell>
        <mxCell id="H7V61cuxpoeFHrsZeGpr-12" value="&lt;font style=&quot;font-size: 14px&quot;&gt;Can Use JWT Token for this.&lt;/font&gt;" style="text;html=1;strokeColor=none;fillColor=none;align=center;verticalAlign=middle;whiteSpace=wrap;rounded=0;" vertex="1" parent="1">
          <mxGeometry x="330" y="-640" width="110" height="40" as="geometry" />
        </mxCell>
        <mxCell id="H7V61cuxpoeFHrsZeGpr-13" value="&lt;font style=&quot;font-size: 16px&quot;&gt;Users should be able to &#39;like&#39; and comment on other&#39;s postings&lt;/font&gt;" style="text;html=1;strokeColor=none;fillColor=none;align=center;verticalAlign=middle;whiteSpace=wrap;rounded=0;" vertex="1" parent="1">
          <mxGeometry x="280" y="-360" width="190" height="60" as="geometry" />
        </mxCell>
        <mxCell id="H7V61cuxpoeFHrsZeGpr-15" value="" style="endArrow=classic;startArrow=classic;html=1;entryX=0.5;entryY=1;entryDx=0;entryDy=0;" edge="1" parent="1" source="H7V61cuxpoeFHrsZeGpr-9" target="H7V61cuxpoeFHrsZeGpr-3">
          <mxGeometry width="50" height="50" relative="1" as="geometry">
            <mxPoint x="350" y="-530" as="sourcePoint" />
            <mxPoint x="400" y="-580" as="targetPoint" />
          </mxGeometry>
        </mxCell>
        <mxCell id="H7V61cuxpoeFHrsZeGpr-17" value="" style="endArrow=classic;startArrow=classic;html=1;entryX=0.482;entryY=0.999;entryDx=0;entryDy=0;entryPerimeter=0;" edge="1" parent="1" target="H7V61cuxpoeFHrsZeGpr-8">
          <mxGeometry width="50" height="50" relative="1" as="geometry">
            <mxPoint x="366.77775697434936" y="-220" as="sourcePoint" />
            <mxPoint x="380" y="-280" as="targetPoint" />
          </mxGeometry>
        </mxCell>
        <mxCell id="H7V61cuxpoeFHrsZeGpr-19" value="" style="rounded=0;whiteSpace=wrap;html=1;" vertex="1" parent="1">
          <mxGeometry x="200" y="-220" width="300" height="60" as="geometry" />
        </mxCell>
        <mxCell id="H7V61cuxpoeFHrsZeGpr-18" value="&lt;font size=&quot;3&quot;&gt;There should be NavLinks&amp;nbsp;&lt;br&gt;displaying multiple options&lt;br&gt;&lt;/font&gt;" style="text;html=1;strokeColor=none;fillColor=none;align=center;verticalAlign=middle;whiteSpace=wrap;rounded=0;" vertex="1" parent="1">
          <mxGeometry x="250" y="-235" width="220" height="90" as="geometry" />
        </mxCell>
        <mxCell id="H7V61cuxpoeFHrsZeGpr-21" value="" style="rounded=0;whiteSpace=wrap;html=1;" vertex="1" parent="1">
          <mxGeometry x="-240" y="-130" width="150" height="80" as="geometry" />
        </mxCell>
        <mxCell id="H7V61cuxpoeFHrsZeGpr-22" value="" style="rounded=0;whiteSpace=wrap;html=1;" vertex="1" parent="1">
          <mxGeometry x="320" y="-110" width="160" height="80" as="geometry" />
        </mxCell>
        <mxCell id="H7V61cuxpoeFHrsZeGpr-23" value="" style="rounded=0;whiteSpace=wrap;html=1;" vertex="1" parent="1">
          <mxGeometry x="740" y="-75" width="170" height="80" as="geometry" />
        </mxCell>
        <mxCell id="H7V61cuxpoeFHrsZeGpr-25" value="" style="rounded=0;whiteSpace=wrap;html=1;" vertex="1" parent="1">
          <mxGeometry x="1040" y="-80" width="170" height="90" as="geometry" />
        </mxCell>
        <mxCell id="H7V61cuxpoeFHrsZeGpr-26" value="&lt;font style=&quot;font-size: 16px&quot;&gt;Hybrids&lt;/font&gt;" style="text;html=1;strokeColor=none;fillColor=none;align=center;verticalAlign=middle;whiteSpace=wrap;rounded=0;" vertex="1" parent="1">
          <mxGeometry x="-235" y="-130" width="140" height="80" as="geometry" />
        </mxCell>
        <mxCell id="H7V61cuxpoeFHrsZeGpr-27" value="&lt;font style=&quot;font-size: 16px&quot;&gt;Robots&lt;/font&gt;" style="text;html=1;strokeColor=none;fillColor=none;align=center;verticalAlign=middle;whiteSpace=wrap;rounded=0;" vertex="1" parent="1">
          <mxGeometry x="350" y="-90" width="100" height="40" as="geometry" />
        </mxCell>
        <mxCell id="H7V61cuxpoeFHrsZeGpr-28" value="&lt;font style=&quot;font-size: 16px&quot;&gt;About&lt;/font&gt;" style="text;html=1;strokeColor=none;fillColor=none;align=center;verticalAlign=middle;whiteSpace=wrap;rounded=0;" vertex="1" parent="1">
          <mxGeometry x="787.5" y="-50" width="75" height="20" as="geometry" />
        </mxCell>
        <mxCell id="H7V61cuxpoeFHrsZeGpr-29" value="&lt;font style=&quot;font-size: 16px&quot;&gt;User Info&lt;/font&gt;" style="text;html=1;strokeColor=none;fillColor=none;align=center;verticalAlign=middle;whiteSpace=wrap;rounded=0;" vertex="1" parent="1">
          <mxGeometry x="1070" y="-65" width="110" height="60" as="geometry" />
        </mxCell>
        <mxCell id="H7V61cuxpoeFHrsZeGpr-30" value="" style="rounded=0;whiteSpace=wrap;html=1;" vertex="1" parent="1">
          <mxGeometry x="-485" y="-50" width="150" height="70" as="geometry" />
        </mxCell>
        <mxCell id="H7V61cuxpoeFHrsZeGpr-31" value="&lt;font style=&quot;font-size: 16px&quot;&gt;Hybrids Form&lt;/font&gt;" style="text;html=1;strokeColor=none;fillColor=none;align=center;verticalAlign=middle;whiteSpace=wrap;rounded=0;" vertex="1" parent="1">
          <mxGeometry x="-470" y="-40" width="120" height="50" as="geometry" />
        </mxCell>
        <mxCell id="H7V61cuxpoeFHrsZeGpr-32" value="" style="rounded=0;whiteSpace=wrap;html=1;" vertex="1" parent="1">
          <mxGeometry x="-485" y="80" width="145" height="60" as="geometry" />
        </mxCell>
        <mxCell id="H7V61cuxpoeFHrsZeGpr-33" value="&lt;font style=&quot;font-size: 16px&quot;&gt;Hybrids List&lt;/font&gt;" style="text;html=1;strokeColor=none;fillColor=none;align=center;verticalAlign=middle;whiteSpace=wrap;rounded=0;" vertex="1" parent="1">
          <mxGeometry x="-470" y="90" width="110" height="50" as="geometry" />
        </mxCell>
        <mxCell id="H7V61cuxpoeFHrsZeGpr-34" value="" style="rounded=0;whiteSpace=wrap;html=1;" vertex="1" parent="1">
          <mxGeometry x="-250" y="30" width="170" height="70" as="geometry" />
        </mxCell>
        <mxCell id="H7V61cuxpoeFHrsZeGpr-35" value="&lt;font style=&quot;font-size: 16px&quot;&gt;Hybrids Index Page&lt;/font&gt;" style="text;html=1;strokeColor=none;fillColor=none;align=center;verticalAlign=middle;whiteSpace=wrap;rounded=0;" vertex="1" parent="1">
          <mxGeometry x="-240" y="40" width="150" height="50" as="geometry" />
        </mxCell>
        <mxCell id="H7V61cuxpoeFHrsZeGpr-37" value="" style="endArrow=classic;startArrow=classic;html=1;exitX=1;exitY=0;exitDx=0;exitDy=0;" edge="1" parent="1" source="H7V61cuxpoeFHrsZeGpr-21">
          <mxGeometry width="50" height="50" relative="1" as="geometry">
            <mxPoint x="150" y="-110" as="sourcePoint" />
            <mxPoint x="200" y="-160" as="targetPoint" />
          </mxGeometry>
        </mxCell>
        <mxCell id="H7V61cuxpoeFHrsZeGpr-38" value="" style="endArrow=classic;startArrow=classic;html=1;exitX=0.525;exitY=-0.024;exitDx=0;exitDy=0;exitPerimeter=0;" edge="1" parent="1" source="H7V61cuxpoeFHrsZeGpr-34">
          <mxGeometry width="50" height="50" relative="1" as="geometry">
            <mxPoint x="-210" as="sourcePoint" />
            <mxPoint x="-160" y="-50" as="targetPoint" />
          </mxGeometry>
        </mxCell>
        <mxCell id="H7V61cuxpoeFHrsZeGpr-39" value="" style="endArrow=classic;startArrow=classic;html=1;entryX=0;entryY=0;entryDx=0;entryDy=0;" edge="1" parent="1" target="H7V61cuxpoeFHrsZeGpr-34">
          <mxGeometry width="50" height="50" relative="1" as="geometry">
            <mxPoint x="-335" as="sourcePoint" />
            <mxPoint x="-285" y="-50" as="targetPoint" />
          </mxGeometry>
        </mxCell>
        <mxCell id="H7V61cuxpoeFHrsZeGpr-40" value="" style="endArrow=classic;startArrow=classic;html=1;entryX=0;entryY=1;entryDx=0;entryDy=0;" edge="1" parent="1" target="H7V61cuxpoeFHrsZeGpr-34">
          <mxGeometry width="50" height="50" relative="1" as="geometry">
            <mxPoint x="-340" y="140" as="sourcePoint" />
            <mxPoint x="-290" y="90" as="targetPoint" />
          </mxGeometry>
        </mxCell>
        <mxCell id="H7V61cuxpoeFHrsZeGpr-41" value="" style="rounded=0;whiteSpace=wrap;html=1;" vertex="1" parent="1">
          <mxGeometry x="-270" y="290" width="200" height="60" as="geometry" />
        </mxCell>
        <mxCell id="H7V61cuxpoeFHrsZeGpr-42" value="" style="endArrow=classic;startArrow=classic;html=1;exitX=0.55;exitY=-0.033;exitDx=0;exitDy=0;exitPerimeter=0;" edge="1" parent="1" source="H7V61cuxpoeFHrsZeGpr-41">
          <mxGeometry width="50" height="50" relative="1" as="geometry">
            <mxPoint x="-210" y="150" as="sourcePoint" />
            <mxPoint x="-160" y="100" as="targetPoint" />
          </mxGeometry>
        </mxCell>
        <mxCell id="H7V61cuxpoeFHrsZeGpr-43" value="&lt;font style=&quot;font-size: 16px&quot;&gt;Hybrids Show Page&lt;/font&gt;" style="text;html=1;strokeColor=none;fillColor=none;align=center;verticalAlign=middle;whiteSpace=wrap;rounded=0;" vertex="1" parent="1">
          <mxGeometry x="-270" y="290" width="200" height="60" as="geometry" />
        </mxCell>
        <mxCell id="H7V61cuxpoeFHrsZeGpr-44" value="" style="rounded=0;whiteSpace=wrap;html=1;" vertex="1" parent="1">
          <mxGeometry x="110" y="-20" width="160" height="70" as="geometry" />
        </mxCell>
        <mxCell id="H7V61cuxpoeFHrsZeGpr-45" value="" style="rounded=0;whiteSpace=wrap;html=1;" vertex="1" parent="1">
          <mxGeometry x="110" y="110" width="160" height="70" as="geometry" />
        </mxCell>
        <mxCell id="H7V61cuxpoeFHrsZeGpr-46" value="" style="rounded=0;whiteSpace=wrap;html=1;" vertex="1" parent="1">
          <mxGeometry x="325" y="60" width="155" height="70" as="geometry" />
        </mxCell>
        <mxCell id="H7V61cuxpoeFHrsZeGpr-47" value="" style="rounded=0;whiteSpace=wrap;html=1;" vertex="1" parent="1">
          <mxGeometry x="330" y="280" width="170" height="80" as="geometry" />
        </mxCell>
        <mxCell id="H7V61cuxpoeFHrsZeGpr-48" value="&lt;font style=&quot;font-size: 16px&quot;&gt;Robots Form&lt;/font&gt;" style="text;html=1;strokeColor=none;fillColor=none;align=center;verticalAlign=middle;whiteSpace=wrap;rounded=0;" vertex="1" parent="1">
          <mxGeometry x="110" y="-20" width="160" height="70" as="geometry" />
        </mxCell>
        <mxCell id="H7V61cuxpoeFHrsZeGpr-49" value="&lt;font style=&quot;font-size: 16px&quot;&gt;Robots List&lt;/font&gt;" style="text;html=1;strokeColor=none;fillColor=none;align=center;verticalAlign=middle;whiteSpace=wrap;rounded=0;" vertex="1" parent="1">
          <mxGeometry x="110" y="110" width="160" height="70" as="geometry" />
        </mxCell>
        <mxCell id="H7V61cuxpoeFHrsZeGpr-50" value="&lt;font style=&quot;font-size: 16px&quot;&gt;Robots Index Page&lt;/font&gt;" style="text;html=1;strokeColor=none;fillColor=none;align=center;verticalAlign=middle;whiteSpace=wrap;rounded=0;" vertex="1" parent="1">
          <mxGeometry x="320" y="60" width="160" height="70" as="geometry" />
        </mxCell>
        <mxCell id="H7V61cuxpoeFHrsZeGpr-51" value="&lt;font style=&quot;font-size: 16px&quot;&gt;Robots Show Page&lt;/font&gt;" style="text;html=1;strokeColor=none;fillColor=none;align=center;verticalAlign=middle;whiteSpace=wrap;rounded=0;" vertex="1" parent="1">
          <mxGeometry x="330" y="280" width="170" height="80" as="geometry" />
        </mxCell>
        <mxCell id="H7V61cuxpoeFHrsZeGpr-52" value="" style="endArrow=classic;startArrow=classic;html=1;exitX=0.5;exitY=0;exitDx=0;exitDy=0;" edge="1" parent="1" source="H7V61cuxpoeFHrsZeGpr-22">
          <mxGeometry width="50" height="50" relative="1" as="geometry">
            <mxPoint x="350" y="-110" as="sourcePoint" />
            <mxPoint x="400" y="-160" as="targetPoint" />
          </mxGeometry>
        </mxCell>
        <mxCell id="H7V61cuxpoeFHrsZeGpr-54" value="" style="endArrow=classic;startArrow=classic;html=1;entryX=0.063;entryY=0;entryDx=0;entryDy=0;entryPerimeter=0;" edge="1" parent="1" target="H7V61cuxpoeFHrsZeGpr-50">
          <mxGeometry width="50" height="50" relative="1" as="geometry">
            <mxPoint x="270" y="50" as="sourcePoint" />
            <mxPoint x="320" as="targetPoint" />
          </mxGeometry>
        </mxCell>
        <mxCell id="H7V61cuxpoeFHrsZeGpr-55" value="" style="endArrow=classic;startArrow=classic;html=1;exitX=1;exitY=1;exitDx=0;exitDy=0;" edge="1" parent="1" source="H7V61cuxpoeFHrsZeGpr-49">
          <mxGeometry width="50" height="50" relative="1" as="geometry">
            <mxPoint x="275" y="180" as="sourcePoint" />
            <mxPoint x="325" y="130" as="targetPoint" />
          </mxGeometry>
        </mxCell>
        <mxCell id="H7V61cuxpoeFHrsZeGpr-56" value="" style="endArrow=classic;startArrow=classic;html=1;exitX=0.563;exitY=0;exitDx=0;exitDy=0;exitPerimeter=0;" edge="1" parent="1" source="H7V61cuxpoeFHrsZeGpr-50">
          <mxGeometry width="50" height="50" relative="1" as="geometry">
            <mxPoint x="360" y="20" as="sourcePoint" />
            <mxPoint x="410" y="-30" as="targetPoint" />
          </mxGeometry>
        </mxCell>
        <mxCell id="H7V61cuxpoeFHrsZeGpr-57" value="" style="endArrow=classic;startArrow=classic;html=1;" edge="1" parent="1" source="H7V61cuxpoeFHrsZeGpr-51">
          <mxGeometry width="50" height="50" relative="1" as="geometry">
            <mxPoint x="360" y="180" as="sourcePoint" />
            <mxPoint x="410" y="130" as="targetPoint" />
          </mxGeometry>
        </mxCell>
        <mxCell id="H7V61cuxpoeFHrsZeGpr-58" value="" style="rounded=0;whiteSpace=wrap;html=1;" vertex="1" parent="1">
          <mxGeometry x="-200" y="-810" width="180" height="130" as="geometry" />
        </mxCell>
        <mxCell id="H7V61cuxpoeFHrsZeGpr-59" value="" style="rounded=0;whiteSpace=wrap;html=1;" vertex="1" parent="1">
          <mxGeometry x="-200" y="-630" width="180" height="100" as="geometry" />
        </mxCell>
        <mxCell id="H7V61cuxpoeFHrsZeGpr-60" value="&lt;font style=&quot;font-size: 16px&quot;&gt;Status Form&lt;/font&gt;" style="text;html=1;strokeColor=none;fillColor=none;align=center;verticalAlign=middle;whiteSpace=wrap;rounded=0;" vertex="1" parent="1">
          <mxGeometry x="-200" y="-810" width="180" height="80" as="geometry" />
        </mxCell>
        <mxCell id="H7V61cuxpoeFHrsZeGpr-61" value="&lt;font style=&quot;font-size: 16px&quot;&gt;Status List&lt;/font&gt;" style="text;html=1;strokeColor=none;fillColor=none;align=center;verticalAlign=middle;whiteSpace=wrap;rounded=0;" vertex="1" parent="1">
          <mxGeometry x="-200" y="-630" width="180" height="100" as="geometry" />
        </mxCell>
        <mxCell id="H7V61cuxpoeFHrsZeGpr-62" value="Will need a Rails Model for statuses" style="text;html=1;strokeColor=none;fillColor=none;align=center;verticalAlign=middle;whiteSpace=wrap;rounded=0;" vertex="1" parent="1">
          <mxGeometry x="-160" y="-725" width="100" height="20" as="geometry" />
        </mxCell>
        <mxCell id="H7V61cuxpoeFHrsZeGpr-64" value="" style="endArrow=classic;startArrow=classic;html=1;entryX=-0.007;entryY=0.125;entryDx=0;entryDy=0;entryPerimeter=0;" edge="1" parent="1" target="H7V61cuxpoeFHrsZeGpr-3">
          <mxGeometry width="50" height="50" relative="1" as="geometry">
            <mxPoint x="-20" y="-740" as="sourcePoint" />
            <mxPoint x="30" y="-790" as="targetPoint" />
          </mxGeometry>
        </mxCell>
        <mxCell id="H7V61cuxpoeFHrsZeGpr-65" value="" style="endArrow=classic;startArrow=classic;html=1;entryX=0;entryY=1;entryDx=0;entryDy=0;" edge="1" parent="1" target="H7V61cuxpoeFHrsZeGpr-3">
          <mxGeometry width="50" height="50" relative="1" as="geometry">
            <mxPoint x="-20" y="-580" as="sourcePoint" />
            <mxPoint x="30" y="-630" as="targetPoint" />
          </mxGeometry>
        </mxCell>
        <mxCell id="H7V61cuxpoeFHrsZeGpr-66" value="" style="rounded=0;whiteSpace=wrap;html=1;" vertex="1" parent="1">
          <mxGeometry x="-240" y="-400" width="145" height="70" as="geometry" />
        </mxCell>
        <mxCell id="H7V61cuxpoeFHrsZeGpr-67" value="" style="endArrow=classic;startArrow=classic;html=1;entryX=0;entryY=0;entryDx=0;entryDy=0;exitX=1;exitY=1;exitDx=0;exitDy=0;" edge="1" parent="1" source="H7V61cuxpoeFHrsZeGpr-66" target="H7V61cuxpoeFHrsZeGpr-19">
          <mxGeometry width="50" height="50" relative="1" as="geometry">
            <mxPoint x="90" y="-200" as="sourcePoint" />
            <mxPoint x="140" y="-250" as="targetPoint" />
          </mxGeometry>
        </mxCell>
        <mxCell id="H7V61cuxpoeFHrsZeGpr-68" value="NavLink&lt;br&gt;Component" style="text;html=1;strokeColor=none;fillColor=none;align=center;verticalAlign=middle;whiteSpace=wrap;rounded=0;" vertex="1" parent="1">
          <mxGeometry x="-240" y="-400" width="150" height="70" as="geometry" />
        </mxCell>
        <mxCell id="H7V61cuxpoeFHrsZeGpr-69" value="" style="endArrow=classic;startArrow=classic;html=1;exitX=1;exitY=1;exitDx=0;exitDy=0;" edge="1" parent="1" source="H7V61cuxpoeFHrsZeGpr-19">
          <mxGeometry width="50" height="50" relative="1" as="geometry">
            <mxPoint x="690" y="-25" as="sourcePoint" />
            <mxPoint x="740" y="-75" as="targetPoint" />
          </mxGeometry>
        </mxCell>
        <mxCell id="H7V61cuxpoeFHrsZeGpr-70" value="" style="endArrow=classic;startArrow=classic;html=1;exitX=1;exitY=0;exitDx=0;exitDy=0;" edge="1" parent="1" source="H7V61cuxpoeFHrsZeGpr-19">
          <mxGeometry width="50" height="50" relative="1" as="geometry">
            <mxPoint x="990" y="-30" as="sourcePoint" />
            <mxPoint x="1040" y="-80" as="targetPoint" />
          </mxGeometry>
        </mxCell>
        <mxCell id="H7V61cuxpoeFHrsZeGpr-71" value="" style="rounded=0;whiteSpace=wrap;html=1;" vertex="1" parent="1">
          <mxGeometry x="1040" y="100" width="170" height="80" as="geometry" />
        </mxCell>
        <mxCell id="H7V61cuxpoeFHrsZeGpr-72" value="&lt;font style=&quot;font-size: 16px&quot;&gt;User Index&lt;/font&gt;" style="text;html=1;strokeColor=none;fillColor=none;align=center;verticalAlign=middle;whiteSpace=wrap;rounded=0;" vertex="1" parent="1">
          <mxGeometry x="1040" y="100" width="170" height="80" as="geometry" />
        </mxCell>
        <mxCell id="H7V61cuxpoeFHrsZeGpr-73" value="" style="rounded=0;whiteSpace=wrap;html=1;" vertex="1" parent="1">
          <mxGeometry x="1040" y="270" width="170" height="80" as="geometry" />
        </mxCell>
        <mxCell id="H7V61cuxpoeFHrsZeGpr-74" value="&lt;font style=&quot;font-size: 16px&quot;&gt;User Show Page&lt;/font&gt;" style="text;html=1;strokeColor=none;fillColor=none;align=center;verticalAlign=middle;whiteSpace=wrap;rounded=0;" vertex="1" parent="1">
          <mxGeometry x="1040" y="270" width="170" height="80" as="geometry" />
        </mxCell>
        <mxCell id="H7V61cuxpoeFHrsZeGpr-75" value="" style="endArrow=classic;startArrow=classic;html=1;exitX=0.54;exitY=-0.027;exitDx=0;exitDy=0;exitPerimeter=0;" edge="1" parent="1" source="H7V61cuxpoeFHrsZeGpr-72">
          <mxGeometry width="50" height="50" relative="1" as="geometry">
            <mxPoint x="1080" y="60" as="sourcePoint" />
            <mxPoint x="1130" y="10" as="targetPoint" />
          </mxGeometry>
        </mxCell>
        <mxCell id="H7V61cuxpoeFHrsZeGpr-76" value="" style="endArrow=classic;startArrow=classic;html=1;exitX=0.54;exitY=0.004;exitDx=0;exitDy=0;exitPerimeter=0;" edge="1" parent="1" source="H7V61cuxpoeFHrsZeGpr-74">
          <mxGeometry width="50" height="50" relative="1" as="geometry">
            <mxPoint x="1080" y="230" as="sourcePoint" />
            <mxPoint x="1130" y="180" as="targetPoint" />
          </mxGeometry>
        </mxCell>
        <mxCell id="H7V61cuxpoeFHrsZeGpr-77" value="" style="rounded=0;whiteSpace=wrap;html=1;" vertex="1" parent="1">
          <mxGeometry x="-1000" y="-1000" width="210" height="90" as="geometry" />
        </mxCell>
        <mxCell id="H7V61cuxpoeFHrsZeGpr-78" value="&lt;font style=&quot;font-size: 16px&quot;&gt;Features&lt;/font&gt;" style="text;html=1;strokeColor=none;fillColor=none;align=center;verticalAlign=middle;whiteSpace=wrap;rounded=0;" vertex="1" parent="1">
          <mxGeometry x="-1000" y="-1000" width="210" height="90" as="geometry" />
        </mxCell>
        <mxCell id="H7V61cuxpoeFHrsZeGpr-79" value="" style="rounded=0;whiteSpace=wrap;html=1;" vertex="1" parent="1">
          <mxGeometry x="-1000" y="-830" width="220" height="90" as="geometry" />
        </mxCell>
        <mxCell id="H7V61cuxpoeFHrsZeGpr-80" value="&lt;font style=&quot;font-size: 16px&quot;&gt;Likes need to be&amp;nbsp;&lt;br&gt;remembered, can&#39;t just be&lt;br&gt;reset when page is refreshed&lt;br&gt;&lt;/font&gt;" style="text;html=1;strokeColor=none;fillColor=none;align=center;verticalAlign=middle;whiteSpace=wrap;rounded=0;" vertex="1" parent="1">
          <mxGeometry x="-980" y="-830" width="190" height="90" as="geometry" />
        </mxCell>
        <mxCell id="H7V61cuxpoeFHrsZeGpr-81" value="" style="rounded=0;whiteSpace=wrap;html=1;" vertex="1" parent="1">
          <mxGeometry x="-1000" y="-620" width="230" height="110" as="geometry" />
        </mxCell>
        <mxCell id="H7V61cuxpoeFHrsZeGpr-82" value="&lt;font style=&quot;font-size: 16px&quot;&gt;Form Fields need to be&lt;br&gt;emptied when data is&amp;nbsp;&lt;br&gt;submitted&lt;br&gt;&lt;/font&gt;" style="text;html=1;strokeColor=none;fillColor=none;align=center;verticalAlign=middle;whiteSpace=wrap;rounded=0;" vertex="1" parent="1">
          <mxGeometry x="-1000" y="-620" width="230" height="110" as="geometry" />
        </mxCell>
        <mxCell id="H7V61cuxpoeFHrsZeGpr-83" value="" style="endArrow=classic;startArrow=classic;html=1;exitX=0.526;exitY=0;exitDx=0;exitDy=0;exitPerimeter=0;" edge="1" parent="1" source="H7V61cuxpoeFHrsZeGpr-80">
          <mxGeometry width="50" height="50" relative="1" as="geometry">
            <mxPoint x="-930" y="-860" as="sourcePoint" />
            <mxPoint x="-880" y="-910" as="targetPoint" />
          </mxGeometry>
        </mxCell>
        <mxCell id="H7V61cuxpoeFHrsZeGpr-84" value="" style="endArrow=classic;startArrow=classic;html=1;exitX=0.522;exitY=0;exitDx=0;exitDy=0;exitPerimeter=0;" edge="1" parent="1" source="H7V61cuxpoeFHrsZeGpr-82">
          <mxGeometry width="50" height="50" relative="1" as="geometry">
            <mxPoint x="-930" y="-690" as="sourcePoint" />
            <mxPoint x="-880" y="-740" as="targetPoint" />
          </mxGeometry>
        </mxCell>
      </root>
    </mxGraphModel>
  </diagram>
</mxfile>
